<?xml version="1.0" encoding="UTF-8"?>
<svg width="152px" height="45px" viewBox="0 0 152 45" version="1.1" xmlns="http://www.w3.org/2000/svg" xmlns:xlink="http://www.w3.org/1999/xlink">
    <!-- Generator: Sketch 51.3 (57544) - http://www.bohemiancoding.com/sketch -->
    <title>google-play-badge</title>
    <desc>Created with Sketch.</desc>
    <defs>
        <linearGradient x1="91.488428%" y1="4.9481245%" x2="-38.3517333%" y2="71.9074222%" id="linearGradient-1">
            <stop stop-color="#00A0FF" offset="0%"></stop>
            <stop stop-color="#00A1FF" offset="1%"></stop>
            <stop stop-color="#00BEFF" offset="26%"></stop>
            <stop stop-color="#00D2FF" offset="51%"></stop>
            <stop stop-color="#00DFFF" offset="76%"></stop>
            <stop stop-color="#00E3FF" offset="100%"></stop>
        </linearGradient>
        <linearGradient x1="107.684729%" y1="50%" x2="-130.640394%" y2="50%" id="linearGradient-2">
            <stop stop-color="#FFE000" offset="0%"></stop>
            <stop stop-color="#FFBD00" offset="41%"></stop>
            <stop stop-color="#FFA500" offset="78%"></stop>
            <stop stop-color="#FF9C00" offset="100%"></stop>
        </linearGradient>
        <linearGradient x1="86.219293%" y1="17.8768889%" x2="-50.1497903%" y2="194.702638%" id="linearGradient-3">
            <stop stop-color="#FF3A44" offset="0%"></stop>
            <stop stop-color="#C31162" offset="100%"></stop>
        </linearGradient>
        <linearGradient x1="-18.7537448%" y1="-54.0521474%" x2="42.1210306%" y2="24.9170664%" id="linearGradient-4">
            <stop stop-color="#32A071" offset="0%"></stop>
            <stop stop-color="#2DA771" offset="7%"></stop>
            <stop stop-color="#15CF74" offset="48%"></stop>
            <stop stop-color="#06E775" offset="80%"></stop>
            <stop stop-color="#00F076" offset="100%"></stop>
        </linearGradient>
    </defs>
    <g id="Page-1" stroke="none" stroke-width="1" fill="none" fill-rule="evenodd">
        <g id="Desktop-HD" transform="translate(-975.000000, -940.000000)" fill-rule="nonzero">
            <g id="Các-tính-năng-của-MEDPRO" transform="translate(270.000000, 826.000000)">
                <g id="google-play-badge" transform="translate(705.000000, 114.000000)">
                    <rect id="Rectangle" fill="#000000" x="0" y="0" width="152" height="45" rx="5"></rect>
                    <path d="M146.37037,0.9 C148.982064,0.9 151.099259,3.01545456 151.099259,5.625 L151.099259,39.375 C151.099259,41.9845454 148.982064,44.1 146.37037,44.1 L5.62962963,44.1 C3.01793641,44.1 0.900740741,41.9845454 0.900740741,39.375 L0.900740741,5.625 C0.900740741,3.01545456 3.01793641,0.9 5.62962963,0.9 L146.37037,0.9 Z M146.37037,0 L5.62962963,0 C2.52047104,1.99840144e-15 0,2.51839828 0,5.625 L0,39.375 C0,42.4816017 2.52047104,45 5.62962963,45 L146.37037,45 C149.479529,45 152,42.4816017 152,39.375 L152,5.625 C152,2.51839828 149.479529,1.99840144e-15 146.37037,0 Z" id="Shape" fill="#A6A6A6"></path>
                    <path d="M53.3914074,11.52 C53.430087,12.3538849 53.1248643,13.1671428 52.546963,13.77 C51.9011879,14.4402786 51.0004855,14.804354 50.0699259,14.77125 C48.642635,14.7600886 47.361115,13.8951182 46.8179049,12.5762768 C46.2746947,11.2574353 46.5756548,9.74173776 47.5816296,8.73 C48.2352668,8.06324171 49.1360592,7.69670485 50.0699259,7.7175 C50.5459197,7.71591536 51.0172078,7.81162686 51.4548148,7.99875 C51.8622362,8.16294776 52.2249302,8.42125113 52.5131852,8.7525 L51.9164444,9.34875 C51.4608349,8.807261 50.7768778,8.5114011 50.0699259,8.55 C49.3592971,8.54651686 48.6779204,8.83247362 48.1829146,9.34193154 C47.6879088,9.85138945 47.4220052,10.5403696 47.4465185,11.25 C47.4314333,12.3223384 48.0634995,13.2984444 49.048636,13.7241656 C50.0337725,14.1498867 51.1785042,13.9416139 51.9502222,13.19625 C52.2966803,12.8211037 52.4965023,12.333939 52.5131852,11.82375 L50.0699259,11.82375 L50.0699259,11.01375 L53.3463704,11.01375 C53.3764023,11.1808284 53.3914743,11.3502484 53.3914074,11.52 Z M58.5481481,8.7075 L55.5081481,8.7075 L55.5081481,10.845 L58.2779259,10.845 L58.2779259,11.655 L55.5081481,11.655 L55.5081481,13.7925 L58.5481481,13.7925 L58.5481481,14.625 L54.6074074,14.625 L54.6074074,7.875 L58.5481481,7.875 L58.5481481,8.7075 Z M62.2411852,14.625 L61.3742222,14.625 L61.3742222,8.7075 L59.4826667,8.7075 L59.4826667,7.875 L64.1777778,7.875 L64.1777778,8.7075 L62.2411852,8.7075 L62.2411852,14.625 Z M67.488,14.625 L67.488,7.875 L68.354963,7.875 L68.354963,14.625 L67.488,14.625 Z M72.2056296,14.625 L71.3386667,14.625 L71.3386667,8.7075 L69.4471111,8.7075 L69.4471111,7.875 L74.0859259,7.875 L74.0859259,8.7075 L72.2056296,8.7075 L72.2056296,14.625 Z M82.8794074,13.7475 C81.5091441,15.1090064 79.2955966,15.1090064 77.9253333,13.7475 C76.5970435,12.3426381 76.5970435,10.1461119 77.9253333,8.74125 C78.5806205,8.08171503 79.4722607,7.71078709 80.4023704,7.71078709 C81.33248,7.71078709 82.2241203,8.08171503 82.8794074,8.74125 C84.2133656,10.1438548 84.2133656,12.3448952 82.8794074,13.7475 Z M78.5671111,13.185 C79.5819351,14.1947607 81.2228056,14.1947607 82.2376296,13.185 C83.2342974,12.0871925 83.2342974,10.4128075 82.2376296,9.315 C81.2228056,8.3052393 79.5819351,8.3052393 78.5671111,9.315 C77.5704434,10.4128075 77.5704434,12.0871925 78.5671111,13.185 Z M85.0974815,14.625 L85.0974815,7.875 L86.1558519,7.875 L89.4435556,13.12875 L89.4435556,7.875 L90.3105185,7.875 L90.3105185,14.625 L89.4097778,14.625 L85.9757037,9.12375 L85.9757037,14.625 L85.0974815,14.625 Z" id="Shape" stroke="#FFFFFF" stroke-width="0.2" fill="#FFFFFF"></path>
                    <path d="M76.7205926,24.46875 C74.0807748,24.4811626 71.9496773,26.6272663 71.9579494,29.2649294 C71.9662216,31.9025926 74.1107382,34.0353093 76.750582,34.0311912 C79.3904258,34.0270732 81.5282671,31.8876761 81.5282963,29.25 C81.5468437,27.9724205 81.0455348,26.7420485 80.139191,25.8406916 C79.2328471,24.9393348 77.9991224,24.4442201 76.7205926,24.46875 Z M76.7205926,32.1525 C75.5307449,32.2356434 74.4109503,31.5836027 73.8967944,30.5082417 C73.3826384,29.4328808 73.5786241,28.1527682 74.3910134,27.2801678 C75.2034028,26.4075674 76.4670767,26.1198364 77.5776337,26.5545934 C78.6881907,26.9893505 79.4199087,28.0582305 79.4228148,29.25 C79.4594556,29.9955059 79.1931627,30.7241919 78.6843654,31.2706992 C78.1755681,31.8172065 77.4674104,32.1351934 76.7205926,32.1525 Z M66.2382222,24.46875 C63.596912,24.4749598 61.4601614,26.6183402 61.4643022,29.2574824 C61.468443,31.8966245 63.611909,34.0333004 66.2532257,34.0312353 C68.8945425,34.0291703 71.0346594,31.8891454 71.0346667,29.25 C71.053214,27.9724205 70.5519052,26.7420485 69.6455613,25.8406916 C68.7392175,24.9393348 67.5054928,24.4442201 66.226963,24.46875 L66.2382222,24.46875 Z M66.2382222,32.1525 C65.0477534,32.2403322 63.9246939,31.5915427 63.4069145,30.5168587 C62.8891352,29.4421746 63.0820523,28.1603942 63.8932714,27.2854051 C64.7044904,26.4104159 65.9688529,26.1203598 67.0808132,26.5541542 C68.1927735,26.9879487 68.9259442,28.0572762 68.9291852,29.25 C68.965826,29.9955059 68.6995331,30.7241919 68.1907358,31.2706992 C67.6819385,31.8172065 66.9737807,32.1351934 66.226963,32.1525 L66.2382222,32.1525 Z M53.7517037,25.9425 L53.7517037,27.9675 L58.6157037,27.9675 C58.5394373,28.9212793 58.1426399,29.8212688 57.4897778,30.52125 C56.5057443,31.5227527 55.1439598,32.0621153 53.7404444,32.00625 C50.7556522,32.00625 48.336,29.5885876 48.336,26.60625 C48.336,23.6239124 50.7556522,21.20625 53.7404444,21.20625 C55.1115922,21.1839062 56.4356431,21.7058086 57.4222222,22.6575 L58.8521481,21.22875 C57.5065761,19.8673404 55.6665867,19.1084109 53.7517037,19.125 C51.0257929,19.0190014 48.460295,20.4116308 47.0657912,22.7543142 C45.6712875,25.0969976 45.6712875,28.0142524 47.0657912,30.3569358 C48.460295,32.6996192 51.0257929,34.0922486 53.7517037,33.98625 C55.7015428,34.0742861 57.594197,33.3153858 58.9422222,31.905 C60.1218275,30.6100368 60.7516337,28.9077314 60.6986667,27.1575 C60.7022999,26.7311117 60.664593,26.3053742 60.5860741,25.88625 L53.7517037,25.9425 Z M104.767407,27.5175 C104.166253,25.7503613 102.535741,24.5374347 100.669037,24.46875 C99.4241723,24.4663181 98.2338226,24.9788335 97.3806346,25.8846003 C96.5274466,26.790367 96.0875268,28.0085885 96.1653333,29.25 C96.1376817,30.5204581 96.628274,31.7475319 97.5243847,32.6492708 C98.4204953,33.5510098 99.645073,34.0498786 100.916741,34.03125 C102.516522,34.0398663 104.013761,33.2453762 104.902519,31.91625 L103.269926,30.79125 C102.774233,31.6169349 101.880372,32.1211879 100.916741,32.11875 C99.9187104,32.1567583 98.998885,31.5812248 98.5973333,30.6675 L105.003852,28.02375 L104.767407,27.5175 Z M98.237037,29.115 C98.1909326,28.4120598 98.4299371,27.7201631 98.9001699,27.19529 C99.3704026,26.6704169 100.032281,26.3567494 100.736593,26.325 C101.478994,26.2761205 102.178978,26.6745179 102.515556,27.3375 L98.237037,29.115 Z M93.0352593,33.75 L95.1407407,33.75 L95.1407407,19.6875 L93.0352593,19.6875 L93.0352593,33.75 Z M89.5899259,25.5375 L89.5111111,25.5375 C88.8692907,24.8205114 87.9517681,24.4112399 86.989037,24.4125 C84.4333506,24.5363306 82.4249129,26.6427896 82.4249129,29.199375 C82.4249129,31.7559604 84.4333506,33.8624194 86.989037,33.98625 C87.9548889,34.0024767 88.8783587,33.5905524 89.5111111,32.86125 L89.5786667,32.86125 L89.5786667,33.5475 C89.5786667,35.38125 88.5991111,36.36 87.0228148,36.36 C85.9490226,36.3348871 84.9969679,35.6636626 84.6133333,34.66125 L82.7780741,35.42625 C83.4847971,37.1439123 85.164171,38.2610906 87.0228148,38.25 C89.4885926,38.25 91.5265185,36.79875 91.5265185,33.26625 L91.5265185,24.75 L89.5899259,24.75 L89.5899259,25.5375 Z M87.1804444,32.1525 C85.6749549,32.0199298 84.5203052,30.7600819 84.5203052,29.25 C84.5203052,27.7399181 85.6749549,26.4800702 87.1804444,26.3475 C87.9079272,26.3848022 88.5895249,26.7139914 89.070705,27.2604335 C89.551885,27.8068757 89.7918866,28.5242815 89.7362963,29.25 C89.798374,29.9790556 89.5591403,30.701735 89.0742184,31.2500112 C88.5892965,31.7982873 87.9009362,32.1243905 87.1691852,32.1525 L87.1804444,32.1525 Z M114.630519,19.6875 L109.59763,19.6875 L109.59763,33.75 L111.703111,33.75 L111.703111,28.4175 L114.641778,28.4175 C116.277392,28.5349093 117.84163,27.7295726 118.695258,26.3305946 C119.548885,24.9316166 119.548885,23.1733834 118.695258,21.7744054 C117.84163,20.3754274 116.277392,19.5700907 114.641778,19.6875 L114.630519,19.6875 Z M114.630519,26.4375 L111.691852,26.4375 L111.691852,21.645 L114.675556,21.645 C116.009385,21.645 117.090667,22.7253929 117.090667,24.058125 C117.090667,25.3908571 116.009385,26.47125 114.675556,26.47125 L114.630519,26.4375 Z M127.612444,24.4125 C126.045958,24.3189438 124.573218,25.162974 123.863111,26.56125 L125.732148,27.3375 C126.108664,26.6441267 126.85934,26.2382125 127.646222,26.3025 C128.186135,26.2394939 128.728748,26.3958414 129.15218,26.736424 C129.575612,27.0770066 129.844366,27.5732718 129.898074,28.11375 L129.898074,28.26 C129.221835,27.902249 128.467689,27.7167658 127.702519,27.72 C125.687111,27.72 123.649185,28.845 123.649185,30.88125 C123.689367,31.7584224 124.082937,32.5820582 124.740355,33.164772 C125.397773,33.7474859 126.263133,34.0397242 127.139556,33.975 C128.219576,34.0524935 129.255811,33.5348023 129.841778,32.625 L129.909333,32.625 L129.909333,33.75 L131.936,33.75 L131.936,28.33875 C131.936,25.875 130.066963,24.44625 127.668741,24.44625 L127.612444,24.4125 Z M127.353481,32.11875 C126.666667,32.11875 125.70963,31.77 125.70963,30.92625 C125.70963,29.80125 126.903111,29.43 127.961481,29.43 C128.630329,29.4135097 129.291347,29.5766858 129.875556,29.9025 C129.729969,31.1618419 128.67816,32.1216081 127.409778,32.1525 L127.353481,32.11875 Z M139.322074,24.75 L136.912593,30.8475 L136.845037,30.8475 L134.345481,24.75 L132.09363,24.75 L135.842963,33.2775 L133.703704,38.01375 L135.899259,38.01375 L141.664,24.75 L139.322074,24.75 Z M120.395259,33.75 L122.500741,33.75 L122.500741,19.6875 L120.395259,19.6875 L120.395259,33.75 Z" id="Shape" fill="#FFFFFF"></path>
                    <path d="M11.7546667,8.4825 C11.387688,8.92249688 11.2024604,9.48576929 11.2367407,10.0575 L11.2367407,34.9425 C11.2024604,35.5142307 11.387688,36.0775031 11.7546667,36.5175 L11.8334815,36.59625 L25.7837037,22.66875 L25.7837037,22.3425 L11.8334815,8.40375 L11.7546667,8.4825 Z" id="Path" fill="url(#linearGradient-1)"></path>
                    <path d="M30.4,27.315 L25.7837037,22.66875 L25.7837037,22.3425 L30.4,17.685 L30.5013333,17.74125 L36.0296296,20.88 C37.6059259,21.76875 37.6059259,23.23125 36.0296296,24.13125 L30.5238519,27.25875 L30.4,27.315 Z" id="Path" fill="url(#linearGradient-2)"></path>
                    <path d="M30.5351111,27.2475 L25.7837037,22.5 L11.7546667,36.5175 C12.4175192,37.0997127 13.4012534,37.1280663 14.0965926,36.585 L30.5463704,27.2475" id="Path" fill="url(#linearGradient-3)"></path>
                    <path d="M30.5351111,17.7525 L14.0853333,8.415 C13.3899941,7.87193369 12.40626,7.9002873 11.7434074,8.4825 L25.7837037,22.5 L30.5351111,17.7525 Z" id="Path" fill="url(#linearGradient-4)"></path>
                    <path d="M30.4,27.14625 L14.0853333,36.4275 C13.4177026,36.9262535 12.5011122,36.9262535 11.8334815,36.4275 L11.7546667,36.50625 L11.8334815,36.585 C12.499856,37.0875142 13.4189588,37.0875142 14.0853333,36.585 L30.5351111,27.2475 L30.4,27.14625 Z" id="Path" fill="#000000" opacity="0.2"></path>
                    <path d="M11.7546667,36.36 C11.387688,35.9200031 11.2024604,35.3567307 11.2367407,34.785 L11.2367407,34.95375 C11.2024604,35.5254807 11.387688,36.0887531 11.7546667,36.52875 L11.8334815,36.45 L11.7546667,36.36 Z M36.0296296,23.9625 L30.4,27.14625 L30.5013333,27.2475 L36.0296296,24.12 C36.6681086,23.8203148 37.0975348,23.2024496 37.1555556,22.5 C37.0272332,23.1354427 36.6114023,23.6755784 36.0296296,23.9625 Z" id="Shape" fill="#000000" opacity="0.12"></path>
                    <path d="M14.0853333,8.5725 L36.0296296,21.0375 C36.6114023,21.3244216 37.0272332,21.8645573 37.1555556,22.5 C37.0975348,21.7975504 36.6681086,21.1796852 36.0296296,20.88 L14.0853333,8.415 C12.509037,7.52625 11.2254815,8.26875 11.2254815,10.06875 L11.2254815,10.2375 C11.2592593,8.42625 12.5202963,7.68375 14.0853333,8.5725 Z" id="Path" fill="#FFFFFF" opacity="0.25"></path>
                </g>
            </g>
        </g>
    </g>
</svg>