<?xml version="1.0" encoding="UTF-8"?>
<svg width="152px" height="45px" viewBox="0 0 152 45" version="1.1" xmlns="http://www.w3.org/2000/svg" xmlns:xlink="http://www.w3.org/1999/xlink">
    <!-- Generator: Sketch 51.3 (57544) - http://www.bohemiancoding.com/sketch -->
    <title>Available_on_the_App_Store_(black)_SVG</title>
    <desc>Created with Sketch.</desc>
    <defs>
        <linearGradient x1="50.0012509%" y1="100.270574%" x2="50.0012509%" y2="10.131036%" id="linearGradient-1">
            <stop stop-color="#1A1A1A" stop-opacity="0.1" offset="0%"></stop>
            <stop stop-color="#212121" stop-opacity="0.1506" offset="12.35%"></stop>
            <stop stop-color="#353535" stop-opacity="0.2265" offset="30.85%"></stop>
            <stop stop-color="#575757" stop-opacity="0.3181" offset="53.21%"></stop>
            <stop stop-color="#858585" stop-opacity="0.4212" offset="78.34%"></stop>
            <stop stop-color="#B3B3B3" stop-opacity="0.51" offset="100%"></stop>
        </linearGradient>
    </defs>
    <g id="Page-1" stroke="none" stroke-width="1" fill="none" fill-rule="evenodd">
        <g id="Desktop-HD" transform="translate(-793.000000, -940.000000)" fill-rule="nonzero">
            <g id="Các-tính-năng-của-MEDPRO" transform="translate(270.000000, 826.000000)">
                <g id="Available_on_the_App_Store_(black)_SVG" transform="translate(523.000000, 114.000000)">
                    <path d="M150.786,39.6765 C150.786,42.057 148.85775,43.98525 146.47275,43.98525 L5.320125,43.98525 C2.93625,43.98525 1.00125,42.057 1.00125,39.6765 L1.00125,5.315625 C1.00125,2.93625 2.93625,1.00125 5.320125,1.00125 L146.471625,1.00125 C148.85775,1.00125 150.784875,2.93625 150.784875,5.315625 L150.786,39.6765 Z" id="Path" fill="#FFFFFF"></path>
                    <path d="M146.47275,44.987625 L5.320125,44.987625 C2.38725,44.987625 0,42.606 0,39.6765 L0,5.31675 C0,2.385 2.38725,0 5.320125,0 L146.471625,0 C149.401125,0 151.79175,2.385 151.79175,5.31675 L151.79175,39.6765 C151.794,42.606 149.403375,44.987625 146.47275,44.987625 Z" id="Path" fill="#A6A6A6"></path>
                    <path d="M150.786,39.6765 C150.786,42.057 148.85775,43.98525 146.47275,43.98525 L5.320125,43.98525 C2.93625,43.98525 1.00125,42.057 1.00125,39.6765 L1.00125,5.315625 C1.00125,2.93625 2.93625,1.00125 5.320125,1.00125 L146.471625,1.00125 C148.85775,1.00125 150.784875,2.93625 150.784875,5.315625 L150.786,39.6765 Z" id="Path" fill="#000000"></path>
                    <path d="M33.894,22.257 C33.861375,18.631125 36.862875,16.867125 37.000125,16.785 C35.30025,14.306625 32.6655,13.968 31.739625,13.941 C29.52675,13.708125 27.38025,15.265125 26.253,15.265125 C25.10325,15.265125 23.367375,13.9635 21.4965,14.00175 C19.089,14.038875 16.83675,15.43275 15.6015,17.59725 C13.05225,22.010625 14.9535,28.49625 17.395875,32.063625 C18.617625,33.811875 20.04525,35.7615 21.913875,35.692875 C23.742,35.618625 24.424875,34.5285 26.631,34.5285 C28.816875,34.5285 29.458125,35.692875 31.363875,35.649 C33.325875,35.618625 34.561125,33.894 35.740125,32.131125 C37.152,30.12975 37.719,28.1565 37.7415,28.05525 C37.6965,28.0395 33.93225,26.60175 33.894,22.257 Z" id="Path" fill="#FFFFFF"></path>
                    <path d="M30.294,11.59425 C31.27725,10.364625 31.95,8.69175 31.76325,6.994125 C30.340125,7.057125 28.560375,7.9785 27.5355,9.181125 C26.62875,10.240875 25.81875,11.977875 26.028,13.611375 C27.626625,13.730625 29.268,12.80475 30.294,11.59425 Z" id="Path" fill="#FFFFFF"></path>
                    <path d="M146.47275,0 L70.867125,0 L100.4805,44.987625 L146.47275,44.987625 C149.40225,44.987625 151.792875,42.606 151.792875,39.673125 L151.792875,5.31675 C151.794,2.385 149.403375,0 146.47275,0 Z" id="Path" fill="url(#linearGradient-1)"></path>
                    <g id="Group" transform="translate(47.250000, 19.125000)" fill="#FFFFFF">
                        <path d="M13.123125,16.317 L10.56825,16.317 L9.16875,11.919375 L4.30425,11.919375 L2.971125,16.317 L0.48375,16.317 L5.304375,1.3455 L8.281125,1.3455 L13.123125,16.317 Z M8.746875,10.074375 L7.48125,6.165 C7.347375,5.765625 7.095375,4.825125 6.726375,3.344625 L6.681375,3.344625 C6.532875,3.981375 6.2955,4.921875 5.970375,6.165 L4.726125,10.074375 L8.746875,10.074375 Z" id="Shape"></path>
                        <path d="M25.495875,10.7865 C25.495875,12.6225 24.9975,14.07375 23.999625,15.139125 C23.106375,16.0875 21.996,16.561125 20.671875,16.561125 C19.242,16.561125 18.21375,16.0515 17.589375,15.03 L17.589375,20.694375 L15.190875,20.694375 L15.190875,9.06975 C15.190875,7.916625 15.1605,6.73425 15.102,5.5215 L17.211375,5.5215 L17.34525,7.232625 L17.39025,7.232625 C18.190125,5.943375 19.404,5.29875 21.033,5.29875 C22.3065,5.29875 23.369625,5.801625 24.220125,6.8085 C25.0695,7.817625 25.495875,9.142875 25.495875,10.7865 Z M23.052375,10.87425 C23.052375,9.8235 22.816125,8.95725 22.341375,8.274375 C21.82275,7.5645 21.126375,7.209 20.253375,7.209 C19.661625,7.209 19.123875,7.407 18.6435,7.797375 C18.162,8.191125 17.847,8.70525 17.699625,9.342 C17.625375,9.639 17.58825,9.880875 17.58825,10.072125 L17.58825,11.87325 C17.58825,12.657375 17.829,13.32 18.3105,13.86225 C18.792,14.40225 19.4175,14.673375 20.187,14.673375 C21.090375,14.673375 21.7935,14.3235 22.296375,13.629375 C22.800375,12.933 23.052375,12.015 23.052375,10.87425 Z" id="Shape"></path>
                        <path d="M37.9125,10.7865 C37.9125,12.6225 37.414125,14.07375 36.41625,15.139125 C35.521875,16.0875 34.412625,16.561125 33.087375,16.561125 C31.6575,16.561125 30.62925,16.0515 30.004875,15.03 L30.004875,20.694375 L27.606375,20.694375 L27.606375,9.06975 C27.606375,7.916625 27.576,6.73425 27.5175,5.5215 L29.626875,5.5215 L29.76075,7.232625 L29.80575,7.232625 C30.6045,5.943375 31.818375,5.29875 33.4485,5.29875 C34.720875,5.29875 35.784,5.801625 36.63675,6.8085 C37.485,7.817625 37.9125,9.142875 37.9125,10.7865 Z M35.467875,10.87425 C35.467875,9.8235 35.2305,8.95725 34.75575,8.274375 C34.237125,7.5645 33.543,7.209 32.67,7.209 C32.07825,7.209 31.5405,7.407 31.057875,7.797375 C30.576375,8.191125 30.2625,8.70525 30.115125,9.342 C30.042,9.639 30.002625,9.880875 30.002625,10.072125 L30.002625,11.87325 C30.002625,12.657375 30.2445,13.32 30.72375,13.86225 C31.20525,14.401125 31.83075,14.673375 32.6025,14.673375 C33.507,14.673375 34.210125,14.3235 34.711875,13.629375 C35.215875,12.933 35.467875,12.015 35.467875,10.87425 Z" id="Shape"></path>
                        <path d="M51.795,12.117375 C51.795,13.392 51.3495,14.428125 50.464125,15.228 C49.489875,16.101 48.12975,16.538625 46.386,16.538625 C44.775,16.538625 43.4835,16.228125 42.50925,15.606 L43.063875,13.606875 C44.11575,14.230125 45.271125,14.540625 46.528875,14.540625 C47.433375,14.540625 48.1365,14.335875 48.63825,13.92975 C49.141125,13.5225 49.395375,12.978 49.395375,12.2985 C49.395375,11.689875 49.185,11.18025 48.772125,10.765125 C48.357,10.351125 47.67075,9.96525 46.706625,9.610875 C44.085375,8.63325 42.773625,7.203375 42.773625,5.322375 C42.773625,4.093875 43.237125,3.088125 44.161875,2.30175 C45.086625,1.5165 46.312875,1.123875 47.838375,1.123875 C49.20075,1.123875 50.335875,1.36125 51.237,1.834875 L50.635125,3.790125 C49.786875,3.331125 48.8295,3.101625 47.7585,3.101625 C46.9125,3.101625 46.24875,3.30975 45.774,3.72375 C45.374625,4.093875 45.172125,4.545 45.172125,5.0805 C45.172125,5.671125 45.40275,6.161625 45.86175,6.546375 C46.26,6.90075 46.98675,7.286625 48.0375,7.700625 C49.32675,8.220375 50.274,8.825625 50.880375,9.520875 C51.49125,10.216125 51.795,11.0835 51.795,12.117375 Z" id="Path"></path>
                        <path d="M59.745375,7.3215 L57.101625,7.3215 L57.101625,12.562875 C57.101625,13.896 57.567375,14.560875 58.501125,14.560875 C58.92975,14.560875 59.28525,14.524875 59.5665,14.4495 L59.632875,16.270875 C59.160375,16.4475 58.53825,16.536375 57.767625,16.536375 C56.820375,16.536375 56.080125,16.24725 55.54575,15.669 C55.013625,15.09075 54.745875,14.122125 54.745875,12.758625 L54.745875,7.317 L53.170875,7.317 L53.170875,5.517 L54.745875,5.517 L54.745875,3.540375 L57.101625,2.829375 L57.101625,5.517 L59.745375,5.517 L59.745375,7.3215 Z" id="Path"></path>
                        <path d="M71.650125,10.830375 C71.650125,12.48975 71.175375,13.852125 70.228125,14.9175 C69.237,16.014375 67.9185,16.561125 66.274875,16.561125 C64.688625,16.561125 63.4275,16.03575 62.487,14.986125 C61.5465,13.93425 61.07625,12.609 61.07625,11.010375 C61.07625,9.3375 61.56225,7.96725 62.530875,6.901875 C63.50175,5.835375 64.809,5.302125 66.452625,5.302125 C68.036625,5.302125 69.309,5.828625 70.272,6.879375 C71.19225,7.898625 71.650125,9.214875 71.650125,10.830375 Z M69.163875,10.8855 C69.163875,9.896625 68.950125,9.048375 68.5215,8.3385 C68.018625,7.48125 67.298625,7.052625 66.366,7.052625 C65.40525,7.052625 64.668375,7.48125 64.166625,8.3385 C63.736875,9.048375 63.523125,9.91125 63.523125,10.9305 C63.523125,11.9205 63.736875,12.771 64.166625,13.478625 C64.68525,14.335875 65.408625,14.7645 66.34575,14.7645 C67.262625,14.7645 67.9815,14.326875 68.50125,13.45725 C68.94225,12.7305 69.163875,11.876625 69.163875,10.8855 Z" id="Shape"></path>
                        <path d="M79.44975,7.630875 C79.212375,7.587 78.958125,7.5645 78.69375,7.5645 C77.85,7.5645 77.1975,7.88175 76.7385,8.52075 C76.34025,9.08325 76.14,9.79425 76.14,10.652625 L76.14,16.317 L73.7415,16.317 L73.7415,8.92125 C73.7415,7.678125 73.717875,6.544125 73.67175,5.522625 L75.760875,5.522625 L75.848625,7.588125 L75.915,7.588125 C76.16925,6.87825 76.5675,6.305625 77.11425,5.877 C77.648625,5.491125 78.22575,5.29875 78.847875,5.29875 C79.0695,5.29875 79.26975,5.3145 79.4475,5.342625 L79.44975,7.630875 Z" id="Path"></path>
                        <path d="M90.176625,10.4085 C90.176625,10.83825 90.1485,11.2005 90.088875,11.496375 L82.893375,11.496375 C82.920375,12.562875 83.269125,13.379625 83.937375,13.942125 C84.54375,14.443875 85.327875,14.695875 86.290875,14.695875 C87.35625,14.695875 88.32825,14.527125 89.202375,14.18625 L89.578125,15.850125 C88.556625,16.295625 87.350625,16.51725 85.959,16.51725 C84.285,16.51725 82.971,16.0245 82.01475,15.04125 C81.06075,14.056875 80.582625,12.733875 80.582625,11.07675 C80.582625,9.45 81.027,8.094375 81.916875,7.01325 C82.848375,5.859 84.10725,5.281875 85.69125,5.281875 C87.247125,5.281875 88.425,5.859 89.224875,7.01325 C89.85825,7.927875 90.176625,9.061875 90.176625,10.4085 Z M87.8895,9.786375 C87.906375,9.07425 87.748875,8.461125 87.42375,7.9425 C87.008625,7.27425 86.369625,6.94125 85.5135,6.94125 C84.729375,6.94125 84.090375,7.266375 83.604375,7.918875 C83.205,8.4375 82.967625,9.06075 82.8945,9.784125 L87.8895,9.786375 Z" id="Shape"></path>
                    </g>
                    <g id="Group" transform="translate(48.375000, 6.750000)" fill="#FFFFFF">
                        <path d="M6.465375,8.362125 L5.20875,8.362125 L4.521375,6.201 L2.13075,6.201 L1.474875,8.362125 L0.252,8.362125 L2.62125,1.0035 L4.08375,1.0035 L6.465375,8.362125 Z M4.314375,5.29425 L3.69225,3.37275 C3.627,3.175875 3.506625,2.718 3.321,1.98675 L3.2985,1.98675 C3.222,2.302875 3.112875,2.761875 2.948625,3.37275 L2.33775,5.29425 L4.314375,5.29425 Z" id="Shape"></path>
                        <path d="M12.389625,3.056625 L10.380375,8.362125 L9.234,8.362125 L7.29,3.056625 L8.55675,3.056625 L9.4635,5.862375 C9.6165,6.3315 9.747,6.77925 9.844875,7.2045 L9.8775,7.2045 C9.96525,6.823125 10.09575,6.375375 10.258875,5.862375 L11.154375,3.056625 L12.389625,3.056625 Z" id="Path"></path>
                        <path d="M16.666875,8.362125 L16.579125,7.75125 L16.5465,7.75125 C16.1865,8.242875 15.66225,8.4825 14.99625,8.4825 C14.04675,8.4825 13.3695,7.8165 13.3695,6.921 C13.3695,5.6115 14.504625,4.93425 16.47,4.93425 L16.47,4.836375 C16.47,4.13775 16.09875,3.787875 15.3675,3.787875 C14.84325,3.787875 14.38425,3.9195 13.9815,4.181625 L13.741875,3.4065 C14.2335,3.1005 14.844375,2.9475 15.5655,2.9475 C16.9515,2.9475 17.65125,3.67875 17.65125,5.142375 L17.65125,7.0965 C17.65125,7.632 17.67375,8.047125 17.72775,8.36325 L16.666875,8.362125 Z M16.502625,5.7195 C15.192,5.7195 14.53725,6.03675 14.53725,6.789375 C14.53725,7.34625 14.875875,7.6185 15.345,7.6185 C15.94575,7.6185 16.502625,7.160625 16.502625,6.5385 L16.502625,5.7195 Z" id="Shape"></path>
                        <path d="M20.277,2.1825 C19.884375,2.1825 19.578375,1.8765 19.578375,1.472625 C19.578375,1.06875 19.8945,0.774 20.2995,0.774 C20.703375,0.774 21.03075,1.06875 21.0195,1.472625 C21.0195,1.899 20.714625,2.1825 20.277,2.1825 Z M20.889,8.362125 L19.71,8.362125 L19.71,3.056625 L20.889,3.056625 L20.889,8.362125 Z" id="Shape"></path>
                        <polygon id="Path" points="24.16275 8.362125 22.98375 8.362125 22.98375 0.622125 24.16275 0.622125"></polygon>
                        <path d="M29.1735,8.362125 L29.08575,7.75125 L29.053125,7.75125 C28.693125,8.242875 28.168875,8.4825 27.502875,8.4825 C26.553375,8.4825 25.876125,7.8165 25.876125,6.921 C25.876125,5.6115 27.01125,4.93425 28.976625,4.93425 L28.976625,4.836375 C28.976625,4.13775 28.605375,3.787875 27.874125,3.787875 C27.349875,3.787875 26.890875,3.9195 26.488125,4.181625 L26.247375,3.405375 C26.739,3.099375 27.349875,2.946375 28.071,2.946375 C29.457,2.946375 30.15675,3.677625 30.15675,5.14125 L30.15675,7.095375 C30.15675,7.630875 30.180375,8.046 30.232125,8.362125 L29.1735,8.362125 Z M29.00925,5.7195 C27.698625,5.7195 27.043875,6.03675 27.043875,6.789375 C27.043875,7.34625 27.3825,7.6185 27.851625,7.6185 C28.452375,7.6185 29.00925,7.160625 29.00925,6.5385 L29.00925,5.7195 Z" id="Shape"></path>
                        <path d="M34.9335,8.4825 C34.180875,8.4825 33.625125,8.16525 33.265125,7.543125 L33.2415,7.543125 L33.174,8.362125 L32.169375,8.362125 C32.202,7.936875 32.21325,7.455375 32.21325,6.93225 L32.21325,0.622125 L33.393375,0.622125 L33.393375,3.832875 L33.415875,3.832875 C33.76575,3.243375 34.331625,2.948625 35.107875,2.948625 C36.385875,2.948625 37.281375,4.041 37.281375,5.634 C37.281375,7.281 36.286875,8.4825 34.9335,8.4825 Z M34.693875,3.8745 C34.0155,3.8745 33.3945,4.464 33.3945,5.283 L33.3945,6.211125 C33.3945,6.942375 33.9525,7.543125 34.673625,7.543125 C35.55675,7.543125 36.082125,6.823125 36.082125,5.67675 C36.081,4.606875 35.53425,3.8745 34.693875,3.8745 Z" id="Shape"></path>
                        <polygon id="Path" points="40.203 8.362125 39.025125 8.362125 39.025125 0.622125 40.203 0.622125"></polygon>
                        <path d="M46.621125,5.992875 L43.081875,5.992875 C43.1055,6.9975 43.76925,7.5645 44.7525,7.5645 C45.27675,7.5645 45.757125,7.47675 46.182375,7.313625 L46.36575,8.132625 C45.864,8.350875 45.2745,8.46 44.587125,8.46 C42.926625,8.46 41.9445,7.4115 41.9445,5.785875 C41.9445,4.159125 42.95025,2.93625 44.454375,2.93625 C45.80775,2.93625 46.6605,3.940875 46.6605,5.4585 C46.665,5.6655 46.654875,5.851125 46.621125,5.992875 Z M45.54,5.1525 C45.54,4.3335 45.124875,3.75525 44.371125,3.75525 C43.693875,3.75525 43.160625,4.34475 43.081875,5.1525 L45.54,5.1525 Z" id="Shape"></path>
                        <path d="M53.767125,8.4825 C52.216875,8.4825 51.21225,7.324875 51.21225,5.75325 C51.21225,4.11525 52.23825,2.9475 53.856,2.9475 C55.382625,2.9475 56.410875,4.05 56.410875,5.666625 C56.410875,7.324875 55.351125,8.4825 53.767125,8.4825 Z M53.812125,3.80925 C52.9605,3.80925 52.414875,4.60575 52.414875,5.7195 C52.414875,6.811875 52.97175,7.608375 53.800875,7.608375 C54.63,7.608375 55.18575,6.75675 55.18575,5.697 C55.186875,4.617 54.64125,3.80925 53.812125,3.80925 Z" id="Shape"></path>
                        <path d="M62.749125,8.362125 L61.57125,8.362125 L61.57125,5.315625 C61.57125,4.377375 61.21125,3.907125 60.501375,3.907125 C59.80275,3.907125 59.32125,4.507875 59.32125,5.2065 L59.32125,8.362125 L58.143375,8.362125 L58.143375,4.573125 C58.143375,4.104 58.131,3.601125 58.0995,3.0555 L59.13675,3.0555 L59.191875,3.8745 L59.2245,3.8745 C59.5395,3.3075 60.18525,2.946375 60.90525,2.946375 C62.017875,2.946375 62.749125,3.798 62.749125,5.184 L62.749125,8.362125 Z" id="Path"></path>
                        <path d="M70.46325,3.940875 L69.166125,3.940875 L69.166125,6.517125 C69.166125,7.173 69.3945,7.500375 69.852375,7.500375 C70.0605,7.500375 70.236,7.477875 70.376625,7.44525 L70.40925,8.34075 C70.17975,8.4285 69.872625,8.472375 69.4935,8.472375 C68.56425,8.472375 68.009625,7.959375 68.009625,6.616125 L68.009625,3.940875 L67.235625,3.940875 L67.235625,3.056625 L68.009625,3.056625 L68.009625,2.084625 L69.166125,1.73475 L69.166125,3.0555 L70.46325,3.0555 L70.46325,3.940875 Z" id="Path"></path>
                        <path d="M76.707,8.362125 L75.526875,8.362125 L75.526875,5.338125 C75.526875,4.388625 75.166875,3.90825 74.457,3.90825 C73.846125,3.90825 73.279125,4.323375 73.279125,5.16375 L73.279125,8.362125 L72.099,8.362125 L72.099,0.622125 L73.279125,0.622125 L73.279125,3.80925 L73.301625,3.80925 C73.672875,3.231 74.208375,2.946375 74.89575,2.946375 C76.019625,2.946375 76.707,3.819375 76.707,5.2065 L76.707,8.362125 Z" id="Path"></path>
                        <path d="M82.731375,5.992875 L79.19325,5.992875 C79.21575,6.9975 79.8795,7.5645 80.86275,7.5645 C81.388125,7.5645 81.867375,7.47675 82.292625,7.313625 L82.477125,8.132625 C81.975375,8.350875 81.38475,8.46 80.697375,8.46 C79.036875,8.46 78.05475,7.4115 78.05475,5.785875 C78.05475,4.159125 79.0605,2.93625 80.564625,2.93625 C81.918,2.93625 82.77075,3.940875 82.77075,5.4585 C82.77525,5.6655 82.764,5.851125 82.731375,5.992875 Z M81.65025,5.1525 C81.65025,4.3335 81.23625,3.75525 80.4825,3.75525 C79.804125,3.75525 79.270875,4.34475 79.19325,5.1525 L81.65025,5.1525 Z" id="Shape"></path>
                    </g>
                </g>
            </g>
        </g>
    </g>
</svg>